<svg xmlns="http://www.w3.org/2000/svg" width="1800" height="1800" viewBox="0 0 1800 1800">
<rect width="100%" height="100%" fill="#173B63"/>
<line x1="0" y1="0" x2="0" y2="1800" stroke="#2A5A88" stroke-width="1" opacity="0.65"/>
<line x1="60" y1="0" x2="60" y2="1800" stroke="#2A5A88" stroke-width="1" opacity="0.65"/>
<line x1="120" y1="0" x2="120" y2="1800" stroke="#2A5A88" stroke-width="1" opacity="0.65"/>
<line x1="180" y1="0" x2="180" y2="1800" stroke="#2A5A88" stroke-width="1" opacity="0.65"/>
<line x1="240" y1="0" x2="240" y2="1800" stroke="#2A5A88" stroke-width="1" opacity="0.65"/>
<line x1="300" y1="0" x2="300" y2="1800" stroke="#2A5A88" stroke-width="1" opacity="0.65"/>
<line x1="360" y1="0" x2="360" y2="1800" stroke="#2A5A88" stroke-width="1" opacity="0.65"/>
<line x1="420" y1="0" x2="420" y2="1800" stroke="#2A5A88" stroke-width="1" opacity="0.65"/>
<line x1="480" y1="0" x2="480" y2="1800" stroke="#2A5A88" stroke-width="1" opacity="0.65"/>
<line x1="540" y1="0" x2="540" y2="1800" stroke="#2A5A88" stroke-width="1" opacity="0.65"/>
<line x1="600" y1="0" x2="600" y2="1800" stroke="#2A5A88" stroke-width="1" opacity="0.65"/>
<line x1="660" y1="0" x2="660" y2="1800" stroke="#2A5A88" stroke-width="1" opacity="0.65"/>
<line x1="720" y1="0" x2="720" y2="1800" stroke="#2A5A88" stroke-width="1" opacity="0.65"/>
<line x1="780" y1="0" x2="780" y2="1800" stroke="#2A5A88" stroke-width="1" opacity="0.65"/>
<line x1="840" y1="0" x2="840" y2="1800" stroke="#2A5A88" stroke-width="1" opacity="0.65"/>
<line x1="900" y1="0" x2="900" y2="1800" stroke="#2A5A88" stroke-width="1" opacity="0.65"/>
<line x1="960" y1="0" x2="960" y2="1800" stroke="#2A5A88" stroke-width="1" opacity="0.65"/>
<line x1="1020" y1="0" x2="1020" y2="1800" stroke="#2A5A88" stroke-width="1" opacity="0.65"/>
<line x1="1080" y1="0" x2="1080" y2="1800" stroke="#2A5A88" stroke-width="1" opacity="0.65"/>
<line x1="1140" y1="0" x2="1140" y2="1800" stroke="#2A5A88" stroke-width="1" opacity="0.65"/>
<line x1="1200" y1="0" x2="1200" y2="1800" stroke="#2A5A88" stroke-width="1" opacity="0.65"/>
<line x1="1260" y1="0" x2="1260" y2="1800" stroke="#2A5A88" stroke-width="1" opacity="0.65"/>
<line x1="1320" y1="0" x2="1320" y2="1800" stroke="#2A5A88" stroke-width="1" opacity="0.65"/>
<line x1="1380" y1="0" x2="1380" y2="1800" stroke="#2A5A88" stroke-width="1" opacity="0.65"/>
<line x1="1440" y1="0" x2="1440" y2="1800" stroke="#2A5A88" stroke-width="1" opacity="0.65"/>
<line x1="1500" y1="0" x2="1500" y2="1800" stroke="#2A5A88" stroke-width="1" opacity="0.65"/>
<line x1="1560" y1="0" x2="1560" y2="1800" stroke="#2A5A88" stroke-width="1" opacity="0.65"/>
<line x1="1620" y1="0" x2="1620" y2="1800" stroke="#2A5A88" stroke-width="1" opacity="0.65"/>
<line x1="1680" y1="0" x2="1680" y2="1800" stroke="#2A5A88" stroke-width="1" opacity="0.65"/>
<line x1="1740" y1="0" x2="1740" y2="1800" stroke="#2A5A88" stroke-width="1" opacity="0.65"/>
<line x1="1800" y1="0" x2="1800" y2="1800" stroke="#2A5A88" stroke-width="1" opacity="0.65"/>
<line x1="0" y1="0" x2="1800" y2="0" stroke="#2A5A88" stroke-width="1" opacity="0.65"/>
<line x1="0" y1="60" x2="1800" y2="60" stroke="#2A5A88" stroke-width="1" opacity="0.65"/>
<line x1="0" y1="120" x2="1800" y2="120" stroke="#2A5A88" stroke-width="1" opacity="0.65"/>
<line x1="0" y1="180" x2="1800" y2="180" stroke="#2A5A88" stroke-width="1" opacity="0.65"/>
<line x1="0" y1="240" x2="1800" y2="240" stroke="#2A5A88" stroke-width="1" opacity="0.65"/>
<line x1="0" y1="300" x2="1800" y2="300" stroke="#2A5A88" stroke-width="1" opacity="0.65"/>
<line x1="0" y1="360" x2="1800" y2="360" stroke="#2A5A88" stroke-width="1" opacity="0.65"/>
<line x1="0" y1="420" x2="1800" y2="420" stroke="#2A5A88" stroke-width="1" opacity="0.65"/>
<line x1="0" y1="480" x2="1800" y2="480" stroke="#2A5A88" stroke-width="1" opacity="0.65"/>
<line x1="0" y1="540" x2="1800" y2="540" stroke="#2A5A88" stroke-width="1" opacity="0.65"/>
<line x1="0" y1="600" x2="1800" y2="600" stroke="#2A5A88" stroke-width="1" opacity="0.65"/>
<line x1="0" y1="660" x2="1800" y2="660" stroke="#2A5A88" stroke-width="1" opacity="0.65"/>
<line x1="0" y1="720" x2="1800" y2="720" stroke="#2A5A88" stroke-width="1" opacity="0.65"/>
<line x1="0" y1="780" x2="1800" y2="780" stroke="#2A5A88" stroke-width="1" opacity="0.65"/>
<line x1="0" y1="840" x2="1800" y2="840" stroke="#2A5A88" stroke-width="1" opacity="0.65"/>
<line x1="0" y1="900" x2="1800" y2="900" stroke="#2A5A88" stroke-width="1" opacity="0.65"/>
<line x1="0" y1="960" x2="1800" y2="960" stroke="#2A5A88" stroke-width="1" opacity="0.65"/>
<line x1="0" y1="1020" x2="1800" y2="1020" stroke="#2A5A88" stroke-width="1" opacity="0.65"/>
<line x1="0" y1="1080" x2="1800" y2="1080" stroke="#2A5A88" stroke-width="1" opacity="0.65"/>
<line x1="0" y1="1140" x2="1800" y2="1140" stroke="#2A5A88" stroke-width="1" opacity="0.65"/>
<line x1="0" y1="1200" x2="1800" y2="1200" stroke="#2A5A88" stroke-width="1" opacity="0.65"/>
<line x1="0" y1="1260" x2="1800" y2="1260" stroke="#2A5A88" stroke-width="1" opacity="0.65"/>
<line x1="0" y1="1320" x2="1800" y2="1320" stroke="#2A5A88" stroke-width="1" opacity="0.65"/>
<line x1="0" y1="1380" x2="1800" y2="1380" stroke="#2A5A88" stroke-width="1" opacity="0.65"/>
<line x1="0" y1="1440" x2="1800" y2="1440" stroke="#2A5A88" stroke-width="1" opacity="0.65"/>
<line x1="0" y1="1500" x2="1800" y2="1500" stroke="#2A5A88" stroke-width="1" opacity="0.65"/>
<line x1="0" y1="1560" x2="1800" y2="1560" stroke="#2A5A88" stroke-width="1" opacity="0.65"/>
<line x1="0" y1="1620" x2="1800" y2="1620" stroke="#2A5A88" stroke-width="1" opacity="0.65"/>
<line x1="0" y1="1680" x2="1800" y2="1680" stroke="#2A5A88" stroke-width="1" opacity="0.65"/>
<line x1="0" y1="1740" x2="1800" y2="1740" stroke="#2A5A88" stroke-width="1" opacity="0.65"/>
<line x1="0" y1="1800" x2="1800" y2="1800" stroke="#2A5A88" stroke-width="1" opacity="0.65"/>
<line x1="0" y1="0" x2="0" y2="1800" stroke="#335F8E" stroke-width="2" opacity="0.55"/>
<line x1="300" y1="0" x2="300" y2="1800" stroke="#335F8E" stroke-width="2" opacity="0.55"/>
<line x1="600" y1="0" x2="600" y2="1800" stroke="#335F8E" stroke-width="2" opacity="0.55"/>
<line x1="900" y1="0" x2="900" y2="1800" stroke="#335F8E" stroke-width="2" opacity="0.55"/>
<line x1="1200" y1="0" x2="1200" y2="1800" stroke="#335F8E" stroke-width="2" opacity="0.55"/>
<line x1="1500" y1="0" x2="1500" y2="1800" stroke="#335F8E" stroke-width="2" opacity="0.55"/>
<line x1="1800" y1="0" x2="1800" y2="1800" stroke="#335F8E" stroke-width="2" opacity="0.55"/>
<line x1="0" y1="0" x2="1800" y2="0" stroke="#335F8E" stroke-width="2" opacity="0.55"/>
<line x1="0" y1="300" x2="1800" y2="300" stroke="#335F8E" stroke-width="2" opacity="0.55"/>
<line x1="0" y1="600" x2="1800" y2="600" stroke="#335F8E" stroke-width="2" opacity="0.55"/>
<line x1="0" y1="900" x2="1800" y2="900" stroke="#335F8E" stroke-width="2" opacity="0.55"/>
<line x1="0" y1="1200" x2="1800" y2="1200" stroke="#335F8E" stroke-width="2" opacity="0.55"/>
<line x1="0" y1="1500" x2="1800" y2="1500" stroke="#335F8E" stroke-width="2" opacity="0.55"/>
<line x1="0" y1="1800" x2="1800" y2="1800" stroke="#335F8E" stroke-width="2" opacity="0.55"/>
<rect x="80" y="50" width="1640" height="200" rx="28" fill="#103055" stroke="#7DD3FC" stroke-width="3"/>
<text x="120" y="112" font-family="DejaVu Sans" font-size="56" font-weight="700" fill="#F5F7FA" text-anchor="start">
  <tspan x="120" dy="0">E220 Android App Progress</tspan>
</text>
<text x="120" y="170" font-family="DejaVu Sans" font-size="24" font-weight="400" fill="#B7C7D6" text-anchor="start">
  <tspan x="120" dy="0">Current scope, milestone history, and latest serialization migration</tspan>
</text>
<rect x="120" y="200" width="188" height="38" rx="18" fill="#60A5FA"/>
<text x="134" y="226" font-family="DejaVu Sans" font-size="14" font-weight="400" fill="#06223C" text-anchor="start">
  <tspan x="134" dy="0">BLE scan/connect</tspan>
</text>
<rect x="326" y="200" width="158" height="38" rx="18" fill="#5EEAD4"/>
<text x="340" y="226" font-family="DejaVu Sans" font-size="14" font-weight="400" fill="#06223C" text-anchor="start">
  <tspan x="340" dy="0">Chat-first UI</tspan>
</text>
<rect x="502" y="200" width="158" height="38" rx="18" fill="#F59E0B"/>
<text x="516" y="226" font-family="DejaVu Sans" font-size="14" font-weight="400" fill="#06223C" text-anchor="start">
  <tspan x="516" dy="0">WiFi settings</tspan>
</text>
<rect x="678" y="200" width="228" height="38" rx="18" fill="#A78BFA"/>
<text x="692" y="226" font-family="DejaVu Sans" font-size="14" font-weight="400" fill="#06223C" text-anchor="start">
  <tspan x="692" dy="0">Compose + Material 3</tspan>
</text>
<rect x="90" y="290" width="630" height="360" rx="26" fill="#0E2A47" stroke="#5B8FB9" stroke-width="2"/>
<text x="120" y="335" font-family="DejaVu Sans" font-size="22" font-weight="700" fill="#F5F7FA" text-anchor="start">
  <tspan x="120" dy="0">Current Feature Set</tspan>
</text>
<text x="122" y="372" font-family="DejaVu Sans" font-size="22" font-weight="700" fill="#5EEAD4" text-anchor="start">
  <tspan x="122" dy="0">•</tspan>
</text>
<text x="150" y="372" font-family="DejaVu Sans" font-size="19" font-weight="400" fill="#F5F7FA" text-anchor="start">
  <tspan x="150" dy="0">A lightweight Android chat client for</tspan>
  <tspan x="150" dy="25.080000000000002">E220-based radio devices.</tspan>
</text>
<text x="122" y="452" font-family="DejaVu Sans" font-size="22" font-weight="700" fill="#5EEAD4" text-anchor="start">
  <tspan x="122" dy="0">•</tspan>
</text>
<text x="150" y="452" font-family="DejaVu Sans" font-size="19" font-weight="400" fill="#F5F7FA" text-anchor="start">
  <tspan x="150" dy="0">The app connects to a nearby BLE companion</tspan>
  <tspan x="150" dy="25.080000000000002">device.</tspan>
</text>
<text x="122" y="532" font-family="DejaVu Sans" font-size="22" font-weight="700" fill="#5EEAD4" text-anchor="start">
  <tspan x="122" dy="0">•</tspan>
</text>
<text x="150" y="532" font-family="DejaVu Sans" font-size="19" font-weight="400" fill="#F5F7FA" text-anchor="start">
  <tspan x="150" dy="0">Exchanges JSON requests over GATT.</tspan>
</text>
<text x="122" y="590" font-family="DejaVu Sans" font-size="22" font-weight="700" fill="#5EEAD4" text-anchor="start">
  <tspan x="122" dy="0">•</tspan>
</text>
<text x="150" y="590" font-family="DejaVu Sans" font-size="19" font-weight="400" fill="#F5F7FA" text-anchor="start">
  <tspan x="150" dy="0">Provides a chat-first UI for sending and</tspan>
  <tspan x="150" dy="25.080000000000002">receiving messages.</tspan>
</text>
<text x="122" y="670" font-family="DejaVu Sans" font-size="22" font-weight="700" fill="#5EEAD4" text-anchor="start">
  <tspan x="122" dy="0">•</tspan>
</text>
<text x="150" y="670" font-family="DejaVu Sans" font-size="19" font-weight="400" fill="#F5F7FA" text-anchor="start">
  <tspan x="150" dy="0">Includes settings, debug, and diagnostics</tspan>
  <tspan x="150" dy="25.080000000000002">views.</tspan>
</text>
<text x="122" y="750" font-family="DejaVu Sans" font-size="22" font-weight="700" fill="#5EEAD4" text-anchor="start">
  <tspan x="122" dy="0">•</tspan>
</text>
<text x="150" y="750" font-family="DejaVu Sans" font-size="19" font-weight="400" fill="#F5F7FA" text-anchor="start">
  <tspan x="150" dy="0">Uses Jetpack Compose and Material 3.</tspan>
</text>
<rect x="760" y="290" width="950" height="360" rx="26" fill="#0E2A47" stroke="#5B8FB9" stroke-width="2"/>
<text x="790" y="335" font-family="DejaVu Sans" font-size="22" font-weight="700" fill="#F5F7FA" text-anchor="start">
  <tspan x="790" dy="0">Latest Change</tspan>
</text>
<text x="790" y="368" font-family="DejaVu Sans Mono" font-size="18" font-weight="700" fill="#F59E0B" text-anchor="start">
  <tspan x="790" dy="0">e8cf1a0  Migrate protocol JSON to kotlinx.serialization</tspan>
</text>
<text x="800" y="412" font-family="DejaVu Sans" font-size="22" font-weight="700" fill="#60A5FA" text-anchor="start">
  <tspan x="800" dy="0">▸</tspan>
</text>
<text x="835" y="412" font-family="DejaVu Sans" font-size="19" font-weight="400" fill="#F5F7FA" text-anchor="start">
  <tspan x="835" dy="0">12 files changed</tspan>
</text>
<text x="800" y="466" font-family="DejaVu Sans" font-size="22" font-weight="700" fill="#60A5FA" text-anchor="start">
  <tspan x="800" dy="0">▸</tspan>
</text>
<text x="835" y="466" font-family="DejaVu Sans" font-size="19" font-weight="400" fill="#F5F7FA" text-anchor="start">
  <tspan x="835" dy="0">464 insertions(+)</tspan>
</text>
<text x="800" y="520" font-family="DejaVu Sans" font-size="22" font-weight="700" fill="#60A5FA" text-anchor="start">
  <tspan x="800" dy="0">▸</tspan>
</text>
<text x="835" y="520" font-family="DejaVu Sans" font-size="19" font-weight="400" fill="#F5F7FA" text-anchor="start">
  <tspan x="835" dy="0">278 deletions(-)</tspan>
</text>
<text x="800" y="574" font-family="DejaVu Sans" font-size="22" font-weight="700" fill="#60A5FA" text-anchor="start">
  <tspan x="800" dy="0">▸</tspan>
</text>
<text x="835" y="574" font-family="DejaVu Sans" font-size="19" font-weight="400" fill="#F5F7FA" text-anchor="start">
  <tspan x="835" dy="0">new files: JsonSupport.kt,</tspan>
  <tspan x="835" dy="25.080000000000002">RadioConfigOptions.kt,</tspan>
  <tspan x="835" dy="25.080000000000002">SerializationMigrationTest.kt,</tspan>
  <tspan x="835" dy="25.080000000000002">WifiProtocolTest.kt</tspan>
</text>
<line x1="900" y1="730" x2="900" y2="1660" stroke="#7DD3FC" stroke-width="6"/>
<line x1="770" y1="760" x2="890" y2="760" stroke="#60A5FA" stroke-width="4"/>
<rect x="120" y="694" width="650" height="132" rx="22" fill="#0E2A47" stroke="#60A5FA" stroke-width="3"/>
<circle cx="900" cy="760" r="16" fill="#F5F7FA" stroke="#60A5FA" stroke-width="4"/>
<circle cx="900" cy="760" r="7" fill="#60A5FA"/>
<text x="144" y="724" font-family="DejaVu Sans Mono" font-size="18" font-weight="700" fill="#60A5FA" text-anchor="start">
  <tspan x="144" dy="0">d8d10e8</tspan>
</text>
<text x="144" y="754" font-family="DejaVu Sans" font-size="16" font-weight="400" fill="#F5F7FA" text-anchor="start">
  <tspan x="144" dy="0">Fix BLE connection flapping, JSON truncation, and</tspan>
  <tspan x="144" dy="21.12">memory corruption</tspan>
</text>
<line x1="910" y1="880" x2="1030" y2="880" stroke="#5EEAD4" stroke-width="4"/>
<rect x="1030" y="814" width="650" height="132" rx="22" fill="#0E2A47" stroke="#5EEAD4" stroke-width="3"/>
<circle cx="900" cy="880" r="16" fill="#F5F7FA" stroke="#5EEAD4" stroke-width="4"/>
<circle cx="900" cy="880" r="7" fill="#5EEAD4"/>
<text x="1054" y="844" font-family="DejaVu Sans Mono" font-size="18" font-weight="700" fill="#5EEAD4" text-anchor="start">
  <tspan x="1054" dy="0">be6dde9</tspan>
</text>
<text x="1054" y="874" font-family="DejaVu Sans" font-size="16" font-weight="400" fill="#F5F7FA" text-anchor="start">
  <tspan x="1054" dy="0">Fix: corrupted chat responses and BLE connection</tspan>
  <tspan x="1054" dy="21.12">stability</tspan>
</text>
<line x1="770" y1="1000" x2="890" y2="1000" stroke="#F59E0B" stroke-width="4"/>
<rect x="120" y="934" width="650" height="132" rx="22" fill="#0E2A47" stroke="#F59E0B" stroke-width="3"/>
<circle cx="900" cy="1000" r="16" fill="#F5F7FA" stroke="#F59E0B" stroke-width="4"/>
<circle cx="900" cy="1000" r="7" fill="#F59E0B"/>
<text x="144" y="964" font-family="DejaVu Sans Mono" font-size="18" font-weight="700" fill="#F59E0B" text-anchor="start">
  <tspan x="144" dy="0">905cc48</tspan>
</text>
<text x="144" y="994" font-family="DejaVu Sans" font-size="16" font-weight="400" fill="#F5F7FA" text-anchor="start">
  <tspan x="144" dy="0">Fix: Android app compilation errors and update</tspan>
  <tspan x="144" dy="21.12">firmware with ASCII filtering</tspan>
</text>
<line x1="910" y1="1120" x2="1030" y2="1120" stroke="#A78BFA" stroke-width="4"/>
<rect x="1030" y="1054" width="650" height="132" rx="22" fill="#0E2A47" stroke="#A78BFA" stroke-width="3"/>
<circle cx="900" cy="1120" r="16" fill="#F5F7FA" stroke="#A78BFA" stroke-width="4"/>
<circle cx="900" cy="1120" r="7" fill="#A78BFA"/>
<text x="1054" y="1084" font-family="DejaVu Sans Mono" font-size="18" font-weight="700" fill="#A78BFA" text-anchor="start">
  <tspan x="1054" dy="0">111f7b3</tspan>
</text>
<text x="1054" y="1114" font-family="DejaVu Sans" font-size="16" font-weight="400" fill="#F5F7FA" text-anchor="start">
  <tspan x="1054" dy="0">Add WiFi settings functionality to the E220</tspan>
  <tspan x="1054" dy="21.12">Android app - Implement WiFi API calls in</tspan>
  <tspan x="1054" dy="21.12">Repository layer - Add WiFi state management in</tspan>
  <tspan x="1054" dy="21.12">ViewModel - Create WiFi settings UI screen with</tspan>
  <tspan x="1054" dy="21.12">status, control, and station mode sections - Add</tspan>
  <tspan x="1054" dy="21.12">WiFi network scanning and connection capabilities</tspan>
</text>
<line x1="770" y1="1240" x2="890" y2="1240" stroke="#60A5FA" stroke-width="4"/>
<rect x="120" y="1174" width="650" height="132" rx="22" fill="#0E2A47" stroke="#60A5FA" stroke-width="3"/>
<circle cx="900" cy="1240" r="16" fill="#F5F7FA" stroke="#60A5FA" stroke-width="4"/>
<circle cx="900" cy="1240" r="7" fill="#60A5FA"/>
<text x="144" y="1204" font-family="DejaVu Sans Mono" font-size="18" font-weight="700" fill="#60A5FA" text-anchor="start">
  <tspan x="144" dy="0">445ff88</tspan>
</text>
<text x="144" y="1234" font-family="DejaVu Sans" font-size="16" font-weight="400" fill="#F5F7FA" text-anchor="start">
  <tspan x="144" dy="0">Update e220 android app source and gradlew</tspan>
</text>
<line x1="910" y1="1360" x2="1030" y2="1360" stroke="#5EEAD4" stroke-width="4"/>
<rect x="1030" y="1294" width="650" height="132" rx="22" fill="#0E2A47" stroke="#5EEAD4" stroke-width="3"/>
<circle cx="900" cy="1360" r="16" fill="#F5F7FA" stroke="#5EEAD4" stroke-width="4"/>
<circle cx="900" cy="1360" r="7" fill="#5EEAD4"/>
<text x="1054" y="1324" font-family="DejaVu Sans Mono" font-size="18" font-weight="700" fill="#5EEAD4" text-anchor="start">
  <tspan x="1054" dy="0">aab3724</tspan>
</text>
<text x="1054" y="1354" font-family="DejaVu Sans" font-size="16" font-weight="400" fill="#F5F7FA" text-anchor="start">
  <tspan x="1054" dy="0">feat: add slash command composer behavior</tspan>
</text>
<line x1="770" y1="1480" x2="890" y2="1480" stroke="#F59E0B" stroke-width="4"/>
<rect x="120" y="1414" width="650" height="132" rx="22" fill="#0E2A47" stroke="#F59E0B" stroke-width="3"/>
<circle cx="900" cy="1480" r="16" fill="#F5F7FA" stroke="#F59E0B" stroke-width="4"/>
<circle cx="900" cy="1480" r="7" fill="#F59E0B"/>
<text x="144" y="1444" font-family="DejaVu Sans Mono" font-size="18" font-weight="700" fill="#F59E0B" text-anchor="start">
  <tspan x="144" dy="0">c55982d</tspan>
</text>
<text x="144" y="1474" font-family="DejaVu Sans" font-size="16" font-weight="400" fill="#F5F7FA" text-anchor="start">
  <tspan x="144" dy="0">fix: restore E220 Bluetooth discovery and ESP32 BLE</tspan>
  <tspan x="144" dy="21.12">advertising</tspan>
</text>
<line x1="910" y1="1600" x2="1030" y2="1600" stroke="#FB7185" stroke-width="4"/>
<rect x="1030" y="1534" width="650" height="132" rx="22" fill="#0E2A47" stroke="#FB7185" stroke-width="3"/>
<circle cx="900" cy="1600" r="16" fill="#F5F7FA" stroke="#FB7185" stroke-width="4"/>
<circle cx="900" cy="1600" r="7" fill="#FB7185"/>
<text x="1054" y="1564" font-family="DejaVu Sans Mono" font-size="18" font-weight="700" fill="#FB7185" text-anchor="start">
  <tspan x="1054" dy="0">e8cf1a0</tspan>
</text>
<text x="1054" y="1594" font-family="DejaVu Sans" font-size="16" font-weight="400" fill="#F5F7FA" text-anchor="start">
  <tspan x="1054" dy="0">Migrate protocol JSON to kotlinx.serialization</tspan>
</text>
<rect x="90" y="1685" width="1620" height="65" rx="20" fill="#0B2440" stroke="#7DD3FC" stroke-width="2"/>
<text x="120" y="1727" font-family="DejaVu Sans" font-size="14" font-weight="400" fill="#B7C7D6" text-anchor="start">
  <tspan x="120" dy="0">Progress view generated from README scope + recent git history.</tspan>
</text>
</svg>